<?xml version="1.0" encoding="UTF-8"?>
<svg id="circl_logo_light" xmlns="http://www.w3.org/2000/svg" viewBox="0 0 352.58 144.17">
  <metadata>
    <rdf:RDF xmlns:rdf="http://www.w3.org/1999/02/22-rdf-syntax-ns#"
             xmlns:dc="http://purl.org/dc/elements/1.1/">
      <rdf:Description about="#circl_logo_light">
        <dc:creator>EepyBerry</dc:creator>
        <dc:rights>Copyright (c) 2026 EepyBerry</dc:rights>
        <dc:rights>https://creativecommons.org/licenses/by-sa/4.0/legalcode</dc:rights>
      </rdf:Description>
    </rdf:RDF>
  </metadata>
  <defs>
    <style>
      .cls-1,
      .cls-2 {
        fill: #1a1a1a;
      }

      .cls-1,
      .cls-3 {
        stroke: #1a1a1a;
        stroke-linecap: round;
        stroke-miterlimit: 10;
        stroke-width: 3px;
      }

      .cls-3 {
        fill: none;
      }
      
      .cls-4 {
        fill: #699;
      }
      @media (prefers-color-scheme: dark) {
        .cls-1,
        .cls-2 {
          fill: #fff;
        }

        .cls-1,
        .cls-3 {
          stroke: #fff;
          stroke-linecap: round;
          stroke-miterlimit: 10;
          stroke-width: 3px;
        }

        .cls-3 {
          fill: none;
        }

        .cls-4 {
          fill: #f93;
        }
      }
    </style>
  </defs>
  <g id="circl_logo_group">
    <path class="cls-4" d="M36.34,65.5c0-29.3,19.7-53.99,46.58-61.58-5.54-1.56-11.38-2.42-17.42-2.42C30.15,1.5,1.5,30.15,1.5,65.5s28.65,64,64,64c6.04,0,11.88-.86,17.42-2.42-26.88-7.59-46.58-32.28-46.58-61.58Z" />
    <path class="cls-3" d="M27.98,13.64c1.58-1.15,3.22-2.22,4.91-3.23C42.44,4.75,53.59,1.5,65.5,1.5c35.35,0,64,28.65,64,64,0,6.13-.86,12.05-2.47,17.66-3.03,10.57-8.71,20.02-16.28,27.59" />
    <path class="cls-3" d="M97.09,121.18c-4.42,2.51-9.16,4.51-14.16,5.92-5.54,1.56-11.39,2.4-17.43,2.4-35.35,0-64-28.65-64-64,0-11.91,3.25-23.06,8.92-32.61,2.74-4.62,6.05-8.87,9.83-12.64" />
    <path class="cls-3" d="M95.62,82.51c1.54-.92,4.41-2.08,6.18-2.59,2.82-.81,5.8-1.25,8.88-1.25,5.98,0,11.57,1.64,16.36,4.49,9.37,5.58,15.64,15.81,15.64,27.51,0,17.67-14.33,32-32,32s-32-14.33-32-32c0-8.79,3.55-16.76,9.29-22.54" />
    <circle class="cls-3" cx="87.96" cy="87.96" r="16" />
    <circle class="cls-3" cx="20.34" cy="20.34" r="16" />
    <path class="cls-2" d="M201.43,89.94c-3.92,1.9-7.95,2.66-11.66,2.66-13.34,0-22.75-10.08-22.75-28.8s10.46-28.8,23.42-28.8c3.07,0,6.49.73,10.04,2.73l1.86,11h5.86l-.38-13.92c-6.53-3.74-13.34-4.61-18.53-4.61-18.72,0-32.35,14.4-32.35,33.6s13.06,33.6,32.45,33.6c6.72,0,13.34-1.34,19.39-4.61l.38-13.92h-5.86l-1.87,11.07Z" />
    <path class="cls-2" d="M231.43,75.8v-12.67l.29-12.96-1.44-.96-14.5,5.76v3.36l7.87.86c.19,3.84.29,6.82.29,12.09v4.51c0,4.29-.05,10.63-.15,15.45l-7.43,1.35v3.36h22.08v-3.36l-6.86-1.37c-.1-4.82-.15-11.14-.15-15.43Z" />
    <path class="cls-2" d="M227.59,38.36c3.55,0,6.34-2.5,6.34-6.05s-2.78-6.05-6.34-6.05-6.34,2.4-6.34,6.05,2.78,6.05,6.34,6.05Z" />
    <path class="cls-2" d="M274.34,49.21c-5.25,0-10.67,4.63-13.87,12.42l-1.1-11.46-1.44-.96-13.06,5.76v3.36l7.68.86c.19,3.84.29,6.82.29,12.09v4.51c0,4.31-.05,10.69-.15,15.52l-7.05,1.28v3.36h23.04v-3.36l-8.01-1.46c-.1-4.81-.15-11.08-.15-15.34v-7.14c1.75-5.56,4.25-9.61,8.08-12.54l1.23,1.05c1.73,1.44,3.55,2.3,5.76,2.3,3.84,0,5.57-2.5,5.57-7.01-1.15-1.92-4.03-3.26-6.82-3.26Z" />
    <path class="cls-2" d="M308.42,91.16c-9.02,0-15.45-6.62-15.45-18.72s5.95-18.91,14.3-18.91c1.62,0,3.45.25,5.36.82l1.84,6.47c.67,2.4,1.92,4.32,5.09,4.32,2.4,0,3.84-1.15,4.32-3.55-1.25-7.1-8.35-12.38-16.89-12.38-11.42,0-21.98,9.02-21.98,24.09s8.26,23.9,21.41,23.9c9.02,0,15.17-4.42,17.76-12.38l-2.3-1.15c-2.98,4.8-7.87,7.49-13.44,7.49Z" />
    <path class="cls-2" d="M344.8,91.22c-.11-5.14-.19-10.28-.19-15.42v-36.48l.38-13.63-1.34-.77-14.69,4.32v3.36l7.97.96v42.24c0,5.14-.07,10.28-.19,15.42l-7.78,1.38v3.36h23.61v-3.36l-7.78-1.38Z" />
    <polygon class="cls-1" points="119.6 31.29 116 14.99 104.73 26.25 119.6 31.29" />
    <circle class="cls-1" cx="110.67" cy="110.67" r="2" />
    <circle class="cls-1" cx="20.34" cy="20.34" r="2" />
    <circle class="cls-1" cx="87.96" cy="87.96" r="2" />
  </g>
</svg>